<?xml version="1.0" standalone="no"?>
<!DOCTYPE svg PUBLIC "-//W3C//DTD SVG 20010904//EN"
 "http://www.w3.org/TR/2001/REC-SVG-20010904/DTD/svg10.dtd">
<svg version="1.0" xmlns="http://www.w3.org/2000/svg"
 width="856.000000pt" height="336.000000pt" viewBox="0 0 856.000000 336.000000"
 preserveAspectRatio="xMidYMid meet">

<g transform="translate(0.000000,336.000000) scale(0.100000,-0.100000)"
fill="#000000" stroke="none">
<path d="M4055 3278 c-3 -12 -82 -648 -160 -1293 -19 -159 -37 -305 -40 -322
l-6 -33 99 0 99 0 7 63 c6 55 143 1186 149 1230 1 10 92 -217 202 -504 133
-348 206 -526 220 -535 24 -17 85 -18 119 -3 17 8 74 91 178 258 540 872 506
819 495 771 -7 -28 -157 -1241 -157 -1265 0 -12 18 -15 95 -15 52 0 95 2 95 5
0 3 25 202 55 443 82 659 145 1180 145 1197 0 12 -16 15 -84 15 -120 0 -135
-8 -192 -98 -26 -42 -80 -129 -119 -192 -39 -63 -167 -267 -283 -453 -117
-186 -222 -357 -233 -379 -11 -22 -22 -38 -24 -36 -3 2 -13 31 -24 63 -10 33
-74 202 -141 375 -67 173 -132 342 -145 375 -112 291 -126 322 -151 334 -35
16 -193 15 -199 -1z"/>
<path d="M6046 3259 c-3 -19 -19 -146 -36 -284 -17 -137 -57 -470 -90 -740
-33 -269 -63 -516 -67 -547 l-6 -58 109 0 110 0 33 278 c18 152 35 291 38 308
l5 32 197 5 c222 6 271 15 393 79 182 94 288 281 288 508 0 184 -71 314 -208
384 -103 52 -146 58 -464 63 l-297 5 -5 -33z m599 -172 c50 -23 100 -70 128
-122 19 -34 22 -56 22 -151 0 -108 -1 -112 -38 -187 -78 -157 -191 -207 -469
-207 l-127 0 4 28 c3 15 21 162 41 327 19 165 39 309 43 320 8 19 15 20 182
15 137 -4 183 -9 214 -23z"/>
<path d="M1395 3204 c-16 -2 -70 -9 -120 -15 -222 -28 -473 -133 -665 -279
-70 -54 -208 -187 -262 -255 -152 -189 -263 -438 -303 -684 -25 -148 -16 -404
18 -551 58 -246 170 -467 326 -642 209 -236 448 -379 776 -466 l100 -26 800
-6 c440 -3 870 -2 955 1 302 13 443 76 443 199 0 78 -59 147 -233 277 -105 77
-163 136 -203 204 -60 102 -60 101 -67 539 -8 447 -15 512 -76 697 -164 504
-605 891 -1122 984 -101 18 -308 31 -367 23z m360 -129 c459 -94 843 -418
1005 -848 68 -181 81 -259 87 -527 5 -197 3 -233 -8 -224 -198 153 -741 550
-766 561 -50 21 -143 18 -195 -5 -24 -10 -195 -146 -380 -300 -231 -192 -350
-285 -376 -293 -55 -16 -87 1 -220 115 -153 130 -204 154 -297 141 -59 -9 -92
-32 -273 -192 l-150 -131 -11 46 c-43 191 -48 424 -13 589 91 422 370 780 746
957 135 64 293 111 421 126 102 12 337 4 430 -15z m279 -1139 c18 -7 131 -87
252 -178 120 -90 297 -222 392 -293 l172 -129 0 -70 c1 -154 33 -279 96 -374
56 -84 108 -136 229 -226 116 -87 185 -157 185 -188 0 -20 -53 -50 -120 -66
-124 -30 -255 -33 -1080 -29 -801 3 -839 4 -931 24 -310 68 -549 206 -758 438
-92 101 -212 299 -245 401 -5 17 22 44 161 165 203 176 208 179 259 179 47 0
66 -12 214 -139 126 -107 163 -125 246 -118 38 3 77 13 98 25 19 12 184 145
366 297 183 152 341 280 353 285 33 13 74 12 111 -4z"/>
<path d="M1091 2645 c-69 -20 -108 -44 -161 -101 -65 -71 -85 -123 -84 -224 0
-67 5 -95 23 -132 32 -67 90 -129 152 -163 50 -28 62 -30 154 -30 86 0 106 3
145 24 61 32 126 96 158 156 24 44 27 61 27 145 0 89 -2 99 -34 158 -75 139
-233 208 -380 167z m190 -118 c120 -63 161 -222 87 -331 -84 -124 -257 -138
-360 -29 -80 84 -76 236 8 318 71 67 183 85 265 42z"/>
<path d="M4136 1088 c-19 -27 -21 -79 -4 -96 19 -19 66 -14 88 8 22 22 27 79
8 98 -21 21 -75 15 -92 -10z"/>
<path d="M7621 1091 c-25 -25 -28 -83 -7 -100 8 -7 29 -11 47 -9 25 2 38 11
52 35 16 28 17 36 5 60 -17 37 -67 44 -97 14z"/>
<path d="M8416 1068 c-28 -138 -96 -499 -96 -512 0 -12 10 -16 38 -16 l38 0
64 263 c35 144 65 270 68 280 4 15 -3 17 -51 17 -54 0 -55 -1 -61 -32z"/>
<path d="M4430 971 c-21 -6 -28 -18 -40 -66 -14 -57 -17 -61 -58 -75 -36 -12
-42 -18 -42 -42 0 -25 3 -28 36 -28 29 0 34 -3 30 -17 -20 -72 -66 -310 -66
-347 0 -67 30 -98 103 -104 47 -4 66 0 121 26 l65 30 -11 36 c-6 20 -15 36
-19 36 -4 0 -27 -11 -50 -25 -69 -39 -109 -30 -109 26 0 22 28 156 65 317 5
21 11 22 85 22 79 0 80 0 86 28 3 15 7 33 10 40 2 9 -17 12 -76 12 -91 0 -90
-2 -66 88 l14 52 -26 -1 c-15 -1 -38 -4 -52 -8z"/>
<path d="M4822 837 c-18 -5 -48 -27 -67 -49 -30 -33 -35 -45 -35 -89 0 -67 19
-99 90 -154 87 -67 101 -105 55 -150 -30 -31 -84 -33 -154 -6 l-50 19 -11 -34
c-6 -18 -9 -38 -6 -43 4 -5 29 -17 57 -26 98 -33 219 -5 258 59 52 84 32 161
-61 232 -32 25 -65 56 -74 69 -19 28 -10 70 19 90 27 19 98 19 142 1 39 -17
40 -15 50 35 6 34 5 36 -33 47 -47 14 -134 14 -180 -1z"/>
<path d="M5518 843 c-22 -4 -28 -11 -37 -51 -19 -83 -101 -475 -101 -484 0 -4
20 -8 44 -8 34 0 46 4 50 18 3 9 17 71 31 136 28 128 50 170 122 237 74 70
125 88 153 54 15 -18 9 -59 -40 -283 -17 -73 -30 -139 -30 -147 0 -11 12 -15
44 -15 l44 0 20 88 c11 48 24 105 27 127 11 58 31 92 94 158 61 65 96 87 136
87 50 0 50 -27 2 -253 l-43 -207 47 0 47 0 12 53 c60 273 80 383 74 413 -21
112 -152 113 -277 4 l-45 -40 -7 36 c-10 55 -45 84 -100 84 -59 0 -105 -20
-168 -72 l-50 -43 6 42 c4 23 10 48 13 57 6 17 -7 18 -68 9z"/>
<path d="M6542 834 c-52 -20 -144 -102 -179 -161 -74 -128 -83 -292 -19 -352
30 -28 99 -38 149 -22 20 7 58 32 85 56 l49 45 6 -46 c6 -61 15 -68 64 -54
l39 12 -4 62 c-3 47 6 112 38 260 23 108 40 199 38 202 -3 2 -54 6 -114 9 -84
4 -119 1 -152 -11z m158 -80 c0 -42 -36 -165 -62 -216 -17 -32 -54 -80 -83
-107 -105 -99 -165 -74 -151 64 10 101 84 222 158 258 44 22 138 23 138 1z"/>
<path d="M7139 837 c-122 -46 -207 -149 -245 -299 -27 -105 -4 -202 56 -233
64 -33 154 -9 224 61 l38 39 -7 -65 c-16 -146 -42 -206 -102 -235 -45 -22
-105 -19 -131 5 -26 24 -28 50 -7 90 l16 30 -45 0 c-40 0 -47 -3 -61 -30 -19
-38 -19 -94 1 -125 37 -57 179 -74 269 -31 28 13 58 32 67 42 34 38 67 131 83
229 23 135 63 343 86 439 10 44 17 81 15 83 -2 2 -52 6 -112 8 -79 4 -119 2
-145 -8z m145 -84 c-2 -10 -11 -52 -19 -95 -22 -101 -73 -188 -145 -245 -73
-57 -108 -57 -130 2 -20 54 11 174 64 250 51 71 108 105 178 105 48 0 56 -2
52 -17z"/>
<path d="M7942 833 c-113 -47 -191 -163 -200 -298 -4 -66 -2 -81 23 -130 18
-38 40 -65 68 -83 36 -24 50 -27 121 -27 68 1 89 5 134 28 28 15 52 30 52 32
0 3 -7 22 -15 42 -14 34 -16 35 -33 20 -27 -25 -87 -47 -128 -47 -100 0 -149
104 -110 234 42 140 158 202 264 141 l43 -24 19 32 c24 39 22 47 -19 71 -47
27 -162 32 -219 9z"/>
<path d="M4089 838 c-1 -2 -27 -122 -58 -268 l-57 -265 44 -3 c24 -2 46 -2 48
0 2 3 73 332 110 511 5 26 4 27 -40 27 -25 0 -46 -1 -47 -2z"/>
<path d="M7570 836 c0 -3 -25 -119 -55 -259 -30 -139 -55 -259 -55 -265 0 -7
17 -12 44 -12 52 0 45 -13 80 155 14 66 37 173 51 238 14 64 25 124 25 132 0
11 -12 15 -45 15 -25 0 -45 -2 -45 -4z"/>
<path d="M8304 430 c-46 -18 -72 -98 -42 -128 16 -16 68 -15 90 2 17 13 38 56
38 80 0 35 -49 61 -86 46z"/>
</g>
</svg>
